<svg width="375" height="812" viewBox="0 0 375 812" fill="none" xmlns="http://www.w3.org/2000/svg">
<g clip-path="url(#clip0)">
<rect width="375" height="812" fill="#C72828"/>
<path opacity="0.1" fill-rule="evenodd" clip-rule="evenodd" d="M63.7743 72.3899C32.9666 72.3899 3.8331 67.5362 -18.2587 58.7224C-43.628 48.6014 -57.6005 33.8452 -57.5994 17.1711C-57.5994 0.498028 -43.6269 -14.2581 -18.2576 -24.3791C-2.45177 -30.6843 16.9691 -34.9498 38.0192 -36.8746C34.6362 -41.2933 34.948 -47.6515 38.9768 -51.6995C43.3554 -56.1002 50.4544 -56.1002 54.8342 -51.6995L71.7018 -34.7447C76.0805 -30.344 76.0805 -23.2082 71.7018 -18.8075L54.833 -1.8539C52.6443 0.347008 49.7737 1.4469 46.9043 1.4469C44.0349 1.4469 41.1655 0.347008 38.9756 -1.8539C35.6835 -5.16372 34.8683 -10.0197 36.5279 -14.0958C19.0143 -12.2476 3.028 -8.62229 -9.98463 -3.43048C-28.578 3.98702 -35.1746 12.3038 -35.1746 17.1711C-35.1746 22.0383 -28.578 30.3551 -9.98463 37.7726C9.53712 45.5609 35.7318 49.85 63.7743 49.85C91.8167 49.85 118.011 45.5609 137.533 37.7726C156.126 30.3551 162.723 22.0394 162.723 17.1711C162.723 9.27124 147.399 -2.42525 118.113 -9.49679C112.092 -10.9505 108.384 -17.0349 109.83 -23.0865C111.276 -29.1382 117.332 -32.8661 123.352 -31.4112C162.625 -21.9292 185.149 -4.22046 185.149 17.1722C185.149 33.8452 171.177 48.6014 145.807 58.7224C123.715 67.5362 94.5819 72.3899 63.7743 72.3899ZM235.155 123.274C299.121 143.733 312.548 169.622 312.548 187.738C312.548 188.033 312.544 188.33 312.537 188.629C312.297 252.303 286.386 312.104 239.499 357.103C192.535 402.177 130.127 427 63.7742 427C-2.57852 427 -64.9854 402.177 -111.951 357.103C-158.838 312.104 -184.749 252.303 -184.989 188.629C-184.996 188.33 -185 188.033 -185 187.738C-185 169.622 -171.572 143.733 -107.606 123.273C-61.6664 108.581 -0.802399 100.49 63.7753 100.49C107.141 100.49 148.826 104.145 185.448 110.991L213.361 68.3745C216.766 63.176 223.719 61.7357 228.892 65.1582C234.064 68.5808 235.497 75.5689 232.092 80.7675L209.01 116.008C218.161 118.212 226.903 120.635 235.155 123.274ZM290.122 187.738C290.122 173.409 266.455 156.938 228.355 144.753C218.26 141.524 207.376 138.633 195.857 136.091L149.79 206.426C184.234 210.635 215.667 217.349 241.374 226.18C271.767 214.63 290.122 200.354 290.122 187.738ZM-73.6642 238.167C-34.1206 247.436 13.5637 252.445 63.7742 252.445C73.6898 252.445 83.5056 252.248 93.1802 251.863L110.526 225.381C95.2669 224.386 79.6114 223.868 63.7708 223.868C13.8776 223.868 -34.2081 228.961 -73.6642 238.167ZM201.214 238.167C181.362 233.535 159.323 229.948 135.97 227.524L121.121 250.197C149.996 247.882 177.116 243.815 201.214 238.167ZM63.7731 123.03C1.44131 123.03 -57.0074 130.745 -100.807 144.753C-138.907 156.937 -162.574 173.409 -162.574 187.738C-162.574 200.355 -144.217 214.631 -113.825 226.18C-67.7886 210.364 -3.39821 201.328 63.7697 201.328C84.4744 201.328 104.909 202.194 124.63 203.844L172.024 131.484C139.091 125.961 102.172 123.03 63.7731 123.03ZM-158.486 228.808C-138.384 328.737 -46.3719 404.461 63.7742 404.461C173.92 404.461 265.933 328.738 286.034 228.808C274.392 236.898 257.997 244.896 235.155 252.201C189.217 266.893 128.352 274.984 63.7742 274.984C-0.803513 274.984 -61.6675 266.893 -107.607 252.201C-130.449 244.895 -146.843 236.897 -158.486 228.808Z" fill="#FFB84D"/>
<path d="M49.2307 252.043C54.423 252.043 58.0157 249.097 58.0157 242.506H48.9161V245.426H54.0297C54.0035 245.582 53.9772 245.737 53.9248 245.866C53.4528 247.727 51.5909 248.838 49.2307 248.838C46.0839 248.838 43.6451 246.098 43.6451 242.92C43.6451 239.741 46.0839 237.104 49.2307 237.104C50.8042 237.104 52.2465 237.776 53.2692 238.862L55.9178 236.613C54.3444 234.882 51.958 233.77 49.2307 233.77C44.0384 233.77 40 237.854 40 242.92C40 247.959 44.0384 252.043 49.2307 252.043Z" fill="white"/>
<path d="M66.2468 252.043C69.7346 252.043 72.829 249.562 72.829 245.762C72.829 241.937 69.7346 239.456 66.2468 239.456C62.7591 239.456 59.6647 241.937 59.6647 245.762C59.6647 249.562 62.7591 252.043 66.2468 252.043ZM66.2468 248.89C64.5423 248.89 63.1524 247.623 63.1524 245.762C63.1524 243.876 64.5423 242.609 66.2468 242.609C67.9514 242.609 69.3412 243.876 69.3412 245.762C69.3412 247.623 67.9514 248.89 66.2468 248.89Z" fill="white"/>
<path d="M85.1848 251.81H89.4593L84.7653 245.246C87.8072 244.625 89.1446 242.351 89.1446 239.818C89.1446 236.898 87.3614 234.003 83.2181 234.003H76.0066V251.81H79.6516V245.426H80.8842L85.1848 251.81ZM79.6516 237.182H82.8509C84.5555 237.182 85.4733 238.474 85.4733 239.896C85.4733 241.317 84.6079 242.532 82.5625 242.532H79.6516V237.182Z" fill="white"/>
<path d="M103.707 245.582C103.707 241.886 100.848 239.456 97.3606 239.456C93.8467 239.456 90.8572 241.886 90.8572 245.788C90.8572 249.51 93.6106 252.043 97.3606 252.043C99.511 252.043 101.661 251.216 102.815 249.691L100.796 247.701C100.062 248.554 98.8292 249.045 97.5966 249.045C95.9445 249.045 94.7907 248.269 94.4236 246.874H103.654C103.681 246.331 103.707 245.918 103.707 245.582ZM94.4236 244.677C94.7907 243.049 96.0232 242.403 97.4131 242.403C98.9603 242.403 100.167 243.255 100.271 244.677H94.4236Z" fill="white"/>
<path d="M110.695 252.043C113.212 252.043 115.835 250.802 115.835 248.269C115.835 247.287 115.467 245.478 112.53 244.703L110.511 244.186C109.829 244.005 109.305 243.721 109.305 243.152C109.305 242.532 109.934 242.144 110.721 242.144C111.534 242.144 112.216 242.584 112.216 243.385H115.494C115.52 240.542 112.898 239.456 110.669 239.456C107.836 239.456 105.87 241.188 105.87 243.049C105.87 244.315 106.289 246.047 109.436 246.874L111.062 247.262C111.98 247.494 112.399 247.753 112.399 248.269C112.399 248.967 111.639 249.381 110.642 249.381C109.436 249.381 108.833 248.631 108.833 247.933H105.607C105.634 250.596 108.125 252.043 110.695 252.043Z" fill="white"/>
<path d="M125.692 239.766H123.096V235.347H119.661V239.766H117.432V242.377H119.661V251.81H123.096V242.377H125.692V239.766Z" fill="white"/>
<path d="M136.905 239.766V241.214C136.039 239.999 134.387 239.482 132.971 239.482C129.824 239.482 126.966 241.886 126.966 245.762C126.966 249.639 129.824 252.043 132.971 252.043C134.335 252.043 136.039 251.5 136.905 250.311V251.81H140.34V239.766H136.905ZM133.627 248.89C131.896 248.89 130.454 247.52 130.454 245.762C130.454 243.979 131.896 242.661 133.627 242.661C135.226 242.661 136.8 243.902 136.8 245.762C136.8 247.598 135.305 248.89 133.627 248.89Z" fill="white"/>
<path d="M152.174 239.766V245.943C152.174 248.114 150.653 248.761 149.42 248.761C148.24 248.761 147.086 247.908 147.086 246.021V239.766H143.651V246.383C143.625 250.001 145.303 252.095 148.502 252.095C149.709 252.095 151.649 251.423 152.174 249.846V251.81H155.609V239.766H152.174Z" fill="white"/>
<path d="M166.073 239.456C164.552 239.456 163.162 240.309 162.48 242.325V239.766H159.071V251.81H162.507V247.675C162.507 244.238 163.713 242.635 165.47 242.635C165.889 242.635 166.493 242.687 167.227 243.075L168.014 239.844C167.463 239.56 166.729 239.456 166.073 239.456Z" fill="white"/>
<path d="M178.776 239.766V241.214C177.91 239.999 176.258 239.482 174.842 239.482C171.695 239.482 168.837 241.886 168.837 245.762C168.837 249.639 171.695 252.043 174.842 252.043C176.206 252.043 177.91 251.5 178.776 250.311V251.81H182.211V239.766H178.776ZM175.498 248.89C173.767 248.89 172.325 247.52 172.325 245.762C172.325 243.979 173.767 242.661 175.498 242.661C177.097 242.661 178.671 243.902 178.671 245.762C178.671 247.598 177.176 248.89 175.498 248.89Z" fill="white"/>
<path d="M192.786 239.456C191.579 239.456 189.639 240.154 189.114 241.782V239.766H185.679V251.81H189.114V245.633C189.114 243.436 190.635 242.79 191.868 242.79C193.048 242.79 194.202 243.643 194.202 245.556V251.81H197.637V245.194C197.663 241.576 195.985 239.456 192.786 239.456Z" fill="white"/>
<path d="M208 239.766H205.404V235.347H201.969V239.766H199.74V242.377H201.969V251.81H205.404V242.377H208V239.766Z" fill="white"/>
<path d="M46.6077 270.598C46.5016 271.499 46.1656 272.196 45.5997 272.688C45.0378 273.176 44.2892 273.419 43.3539 273.419C42.3401 273.419 41.5267 273.058 40.9136 272.336C40.3045 271.614 40 270.649 40 269.439V268.619C40 267.827 40.1415 267.13 40.4244 266.529C40.7113 265.928 41.116 265.468 41.6387 265.148C42.1613 264.824 42.7665 264.662 43.4541 264.662C44.3658 264.662 45.0967 264.916 45.6469 265.423C46.197 265.926 46.5173 266.625 46.6077 267.519H45.4701C45.3718 266.84 45.1576 266.348 44.8276 266.044C44.5014 265.739 44.0436 265.587 43.4541 265.587C42.7311 265.587 42.1633 265.852 41.7507 266.383C41.342 266.914 41.1376 267.669 41.1376 268.649V269.474C41.1376 270.399 41.3321 271.134 41.7212 271.681C42.1102 272.227 42.6545 272.5 43.3539 272.5C43.9827 272.5 44.4641 272.36 44.7981 272.079C45.136 271.794 45.36 271.3 45.4701 270.598H46.6077Z" fill="#FFB1B1"/>
<path d="M47.6982 270.077C47.6982 269.456 47.82 268.898 48.0636 268.403C48.3112 267.907 48.6531 267.525 49.0892 267.255C49.5294 266.986 50.0304 266.851 50.5923 266.851C51.4608 266.851 52.1622 267.15 52.6966 267.747C53.235 268.344 53.5042 269.138 53.5042 270.13V270.206C53.5042 270.822 53.3843 271.376 53.1446 271.868C52.9088 272.356 52.5689 272.736 52.1249 273.01C51.6848 273.283 51.1778 273.419 50.6041 273.419C49.7396 273.419 49.0382 273.121 48.4998 272.524C47.9654 271.927 47.6982 271.136 47.6982 270.153V270.077ZM48.7945 270.206C48.7945 270.908 48.9576 271.472 49.2838 271.897C49.6139 272.323 50.054 272.535 50.6041 272.535C51.1582 272.535 51.5983 272.321 51.9245 271.892C52.2506 271.458 52.4137 270.853 52.4137 270.077C52.4137 269.382 52.2467 268.82 51.9127 268.391C51.5826 267.958 51.1425 267.741 50.5923 267.741C50.054 267.741 49.6197 267.954 49.2897 268.379C48.9596 268.805 48.7945 269.413 48.7945 270.206Z" fill="#FFB1B1"/>
<path d="M55.8973 266.968L55.9268 267.671C56.3944 267.125 57.0251 266.851 57.8189 266.851C58.711 266.851 59.3181 267.191 59.6403 267.87C59.8525 267.566 60.1276 267.32 60.4655 267.132C60.8074 266.945 61.2102 266.851 61.6739 266.851C63.0728 266.851 63.7841 267.587 63.8077 269.058V273.302H62.7172V269.123C62.7172 268.67 62.6131 268.332 62.4048 268.11C62.1965 267.884 61.8468 267.77 61.3556 267.77C60.9508 267.77 60.6149 267.891 60.3476 268.133C60.0804 268.371 59.9252 268.693 59.882 269.099V273.302H58.7856V269.152C58.7856 268.231 58.3317 267.77 57.424 267.77C56.7088 267.77 56.2196 268.073 55.9563 268.678V273.302H54.8658V266.968H55.8973Z" fill="#FFB1B1"/>
<path d="M66.6429 273.302H65.5524V266.968H66.6429V273.302ZM65.464 265.288C65.464 265.113 65.5171 264.964 65.6232 264.843C65.7332 264.723 65.8943 264.662 66.1065 264.662C66.3187 264.662 66.4798 264.723 66.5899 264.843C66.6999 264.964 66.7549 265.113 66.7549 265.288C66.7549 265.464 66.6999 265.61 66.5899 265.727C66.4798 265.845 66.3187 265.903 66.1065 265.903C65.8943 265.903 65.7332 265.845 65.6232 265.727C65.5171 265.61 65.464 265.464 65.464 265.288Z" fill="#FFB1B1"/>
<path d="M68.1283 270.083C68.1283 269.111 68.3602 268.33 68.8239 267.741C69.2876 267.148 69.8947 266.851 70.6453 266.851C71.3919 266.851 71.9833 267.105 72.4195 267.612V264.311H73.51V273.302H72.5079L72.4549 272.623C72.0187 273.154 71.4115 273.419 70.6335 273.419C69.8947 273.419 69.2915 273.119 68.8239 272.518C68.3602 271.917 68.1283 271.133 68.1283 270.165V270.083ZM69.2188 270.206C69.2188 270.924 69.3681 271.486 69.6668 271.892C69.9654 272.297 70.378 272.5 70.9046 272.5C71.5962 272.5 72.1012 272.192 72.4195 271.575V268.666C72.0933 268.069 71.5923 267.77 70.9164 267.77C70.382 267.77 69.9654 267.975 69.6668 268.385C69.3681 268.795 69.2188 269.402 69.2188 270.206Z" fill="#FFB1B1"/>
<path d="M79.1451 273.302C79.0822 273.177 79.0311 272.955 78.9918 272.635C78.4849 273.158 77.8797 273.419 77.1763 273.419C76.5476 273.419 76.0308 273.244 75.6261 272.893C75.2252 272.537 75.0248 272.089 75.0248 271.546C75.0248 270.887 75.2763 270.375 75.7793 270.012C76.2862 269.646 76.9975 269.462 77.9131 269.462H78.9741V268.965C78.9741 268.586 78.8602 268.286 78.6322 268.063C78.4043 267.837 78.0683 267.724 77.6243 267.724C77.2353 267.724 76.9091 267.821 76.6458 268.016C76.3825 268.211 76.2509 268.448 76.2509 268.725H75.1545C75.1545 268.409 75.2665 268.104 75.4905 267.811C75.7184 267.515 76.0249 267.281 76.41 267.109C76.7991 266.937 77.2254 266.851 77.6891 266.851C78.424 266.851 78.9997 267.035 79.4162 267.402C79.8327 267.765 80.0489 268.266 80.0646 268.906V271.821C80.0646 272.403 80.1393 272.865 80.2886 273.209V273.302H79.1451ZM77.3355 272.477C77.6773 272.477 78.0015 272.389 78.308 272.214C78.6146 272.038 78.8366 271.81 78.9741 271.529V270.229H78.1194C76.7833 270.229 76.1153 270.617 76.1153 271.394C76.1153 271.734 76.2293 271.999 76.4572 272.19C76.6851 272.381 76.9779 272.477 77.3355 272.477Z" fill="#FFB1B1"/>
<path d="M86.1536 273.302H85.0218V264.779H86.1536V273.302Z" fill="#FFB1B1"/>
<path d="M89.537 265.435V266.968H90.7277V267.806H89.537V271.734C89.537 271.987 89.59 272.178 89.6961 272.307C89.8022 272.432 89.983 272.495 90.2384 272.495C90.3642 272.495 90.5371 272.471 90.7571 272.424V273.302C90.4703 273.38 90.1913 273.419 89.9201 273.419C89.4328 273.419 89.0654 273.273 88.8179 272.98C88.5703 272.688 88.4465 272.272 88.4465 271.734V267.806H87.2853V266.968H88.4465V265.435H89.537Z" fill="#FFB1B1"/>
<path d="M95.9442 273.302C95.8814 273.177 95.8303 272.955 95.791 272.635C95.2841 273.158 94.6789 273.419 93.9755 273.419C93.3468 273.419 92.83 273.244 92.4253 272.893C92.0244 272.537 91.824 272.089 91.824 271.546C91.824 270.887 92.0755 270.375 92.5785 270.012C93.0854 269.646 93.7967 269.462 94.7123 269.462H95.7733V268.965C95.7733 268.586 95.6593 268.286 95.4314 268.063C95.2035 267.837 94.8675 267.724 94.4235 267.724C94.0344 267.724 93.7083 267.821 93.445 268.016C93.1817 268.211 93.0501 268.448 93.0501 268.725H91.9537C91.9537 268.409 92.0657 268.104 92.2897 267.811C92.5176 267.515 92.8241 267.281 93.2092 267.109C93.5983 266.937 94.0246 266.851 94.4883 266.851C95.2232 266.851 95.7988 267.035 96.2154 267.402C96.6319 267.765 96.8481 268.266 96.8638 268.906V271.821C96.8638 272.403 96.9384 272.865 97.0878 273.209V273.302H95.9442ZM94.1346 272.477C94.4765 272.477 94.8007 272.389 95.1072 272.214C95.4137 272.038 95.6358 271.81 95.7733 271.529V270.229H94.9186C93.5825 270.229 92.9145 270.617 92.9145 271.394C92.9145 271.734 93.0285 271.999 93.2564 272.19C93.4843 272.381 93.7771 272.477 94.1346 272.477Z" fill="#FFB1B1"/>
<path d="M99.758 273.302H98.6675V264.311H99.758V273.302Z" fill="#FFB1B1"/>
<path d="M102.693 273.302H101.603V266.968H102.693V273.302ZM101.514 265.288C101.514 265.113 101.568 264.964 101.674 264.843C101.784 264.723 101.945 264.662 102.157 264.662C102.369 264.662 102.53 264.723 102.64 264.843C102.75 264.964 102.805 265.113 102.805 265.288C102.805 265.464 102.75 265.61 102.64 265.727C102.53 265.845 102.369 265.903 102.157 265.903C101.945 265.903 101.784 265.845 101.674 265.727C101.568 265.61 101.514 265.464 101.514 265.288Z" fill="#FFB1B1"/>
<path d="M108.382 273.302C108.319 273.177 108.268 272.955 108.228 272.635C107.721 273.158 107.116 273.419 106.413 273.419C105.784 273.419 105.267 273.244 104.863 272.893C104.462 272.537 104.261 272.089 104.261 271.546C104.261 270.887 104.513 270.375 105.016 270.012C105.523 269.646 106.234 269.462 107.15 269.462H108.211V268.965C108.211 268.586 108.097 268.286 107.869 268.063C107.641 267.837 107.305 267.724 106.861 267.724C106.472 267.724 106.146 267.821 105.882 268.016C105.619 268.211 105.487 268.448 105.487 268.725H104.391C104.391 268.409 104.503 268.104 104.727 267.811C104.955 267.515 105.261 267.281 105.647 267.109C106.036 266.937 106.462 266.851 106.926 266.851C107.66 266.851 108.236 267.035 108.653 267.402C109.069 267.765 109.285 268.266 109.301 268.906V271.821C109.301 272.403 109.376 272.865 109.525 273.209V273.302H108.382ZM106.572 272.477C106.914 272.477 107.238 272.389 107.545 272.214C107.851 272.038 108.073 271.81 108.211 271.529V270.229H107.356C106.02 270.229 105.352 270.617 105.352 271.394C105.352 271.734 105.466 271.999 105.694 272.19C105.922 272.381 106.214 272.477 106.572 272.477Z" fill="#FFB1B1"/>
<path d="M112.042 266.968L112.077 267.765C112.565 267.156 113.201 266.851 113.987 266.851C115.335 266.851 116.015 267.607 116.027 269.117V273.302H114.936V269.111C114.932 268.654 114.826 268.317 114.618 268.098C114.414 267.88 114.093 267.77 113.657 267.77C113.303 267.77 112.993 267.864 112.726 268.051C112.459 268.239 112.25 268.485 112.101 268.789V273.302H111.01V266.968H112.042Z" fill="#FFB1B1"/>
<path d="M121.609 273.302C121.546 273.177 121.495 272.955 121.455 272.635C120.949 273.158 120.343 273.419 119.64 273.419C119.011 273.419 118.494 273.244 118.09 272.893C117.689 272.537 117.488 272.089 117.488 271.546C117.488 270.887 117.74 270.375 118.243 270.012C118.75 269.646 119.461 269.462 120.377 269.462H121.438V268.965C121.438 268.586 121.324 268.286 121.096 268.063C120.868 267.837 120.532 267.724 120.088 267.724C119.699 267.724 119.373 267.821 119.109 268.016C118.846 268.211 118.715 268.448 118.715 268.725H117.618C117.618 268.409 117.73 268.104 117.954 267.811C118.182 267.515 118.489 267.281 118.874 267.109C119.263 266.937 119.689 266.851 120.153 266.851C120.888 266.851 121.463 267.035 121.88 267.402C122.296 267.765 122.513 268.266 122.528 268.906V271.821C122.528 272.403 122.603 272.865 122.752 273.209V273.302H121.609ZM119.799 272.477C120.141 272.477 120.465 272.389 120.772 272.214C121.078 272.038 121.3 271.81 121.438 271.529V270.229H120.583C119.247 270.229 118.579 270.617 118.579 271.394C118.579 271.734 118.693 271.999 118.921 272.19C119.149 272.381 119.441 272.477 119.799 272.477Z" fill="#FFB1B1"/>
<path d="M124.202 275L123.583 274.579C123.953 274.067 124.145 273.54 124.161 272.998V272.02H125.228V272.869C125.228 273.263 125.13 273.657 124.933 274.052C124.741 274.446 124.497 274.762 124.202 275Z" fill="#FFB1B1"/>
<path d="M133.315 271.622C133.315 271.33 133.203 271.103 132.979 270.943C132.759 270.779 132.372 270.639 131.818 270.522C131.268 270.405 130.83 270.264 130.503 270.1C130.181 269.936 129.941 269.741 129.784 269.515C129.631 269.289 129.554 269.019 129.554 268.707C129.554 268.188 129.774 267.749 130.215 267.39C130.659 267.031 131.225 266.851 131.912 266.851C132.635 266.851 133.221 267.037 133.669 267.407C134.121 267.778 134.347 268.252 134.347 268.83H133.25C133.25 268.533 133.123 268.278 132.867 268.063C132.616 267.848 132.297 267.741 131.912 267.741C131.515 267.741 131.205 267.827 130.981 267.999C130.757 268.17 130.645 268.395 130.645 268.672C130.645 268.933 130.749 269.13 130.957 269.263C131.166 269.396 131.541 269.523 132.083 269.644C132.629 269.765 133.071 269.909 133.409 270.077C133.747 270.245 133.997 270.448 134.158 270.686C134.323 270.92 134.406 271.207 134.406 271.546C134.406 272.112 134.178 272.567 133.722 272.91C133.266 273.25 132.675 273.419 131.948 273.419C131.437 273.419 130.985 273.33 130.592 273.15C130.199 272.971 129.89 272.721 129.666 272.401C129.446 272.077 129.336 271.728 129.336 271.353H130.427C130.446 271.716 130.592 272.005 130.863 272.219C131.138 272.43 131.5 272.535 131.948 272.535C132.36 272.535 132.69 272.454 132.938 272.29C133.189 272.122 133.315 271.899 133.315 271.622Z" fill="#FFB1B1"/>
<path d="M137.011 273.302H135.92V266.968H137.011V273.302ZM135.832 265.288C135.832 265.113 135.885 264.964 135.991 264.843C136.101 264.723 136.262 264.662 136.474 264.662C136.687 264.662 136.848 264.723 136.958 264.843C137.068 264.964 137.123 265.113 137.123 265.288C137.123 265.464 137.068 265.61 136.958 265.727C136.848 265.845 136.687 265.903 136.474 265.903C136.262 265.903 136.101 265.845 135.991 265.727C135.885 265.61 135.832 265.464 135.832 265.288Z" fill="#FFB1B1"/>
<path d="M139.787 266.968L139.817 267.671C140.284 267.125 140.915 266.851 141.709 266.851C142.601 266.851 143.208 267.191 143.53 267.87C143.742 267.566 144.017 267.32 144.355 267.132C144.697 266.945 145.1 266.851 145.564 266.851C146.963 266.851 147.674 267.587 147.698 269.058V273.302H146.607V269.123C146.607 268.67 146.503 268.332 146.295 268.11C146.086 267.884 145.737 267.77 145.245 267.77C144.841 267.77 144.505 267.891 144.237 268.133C143.97 268.371 143.815 268.693 143.772 269.099V273.302H142.675V269.152C142.675 268.231 142.222 267.77 141.314 267.77C140.599 267.77 140.109 268.073 139.846 268.678V273.302H138.756V266.968H139.787Z" fill="#FFB1B1"/>
<path d="M149.372 272.735C149.372 272.547 149.427 272.391 149.537 272.266C149.651 272.141 149.82 272.079 150.044 272.079C150.268 272.079 150.436 272.141 150.55 272.266C150.668 272.391 150.727 272.547 150.727 272.735C150.727 272.914 150.668 273.064 150.55 273.185C150.436 273.306 150.268 273.367 150.044 273.367C149.82 273.367 149.651 273.306 149.537 273.185C149.427 273.064 149.372 272.914 149.372 272.735Z" fill="#FFB1B1"/>
<path fill-rule="evenodd" clip-rule="evenodd" d="M64.4364 174.511C61.4102 174.511 58.5485 174.034 56.3785 173.169C53.8866 172.175 52.5141 170.726 52.5142 169.088C52.5142 167.451 53.8867 166.001 56.3786 165.007C57.9312 164.388 59.8388 163.969 61.9065 163.78C61.5742 163.346 61.6048 162.722 62.0006 162.324C62.4307 161.892 63.128 161.892 63.5582 162.324L65.2151 163.989C65.6452 164.421 65.6452 165.122 65.2151 165.555L63.5581 167.22C63.3431 167.436 63.0611 167.544 62.7793 167.544C62.4974 167.544 62.2156 167.436 62.0005 167.22C61.6771 166.894 61.597 166.418 61.76 166.017C60.0397 166.199 58.4694 166.555 57.1912 167.065C55.3649 167.793 54.7169 168.61 54.7169 169.088C54.7169 169.566 55.3649 170.383 57.1912 171.111C59.1088 171.876 61.6818 172.297 64.4364 172.297C67.1909 172.297 69.7639 171.876 71.6815 171.111C73.5079 170.383 74.1558 169.566 74.1558 169.088C74.1558 168.312 72.6506 167.163 69.7739 166.469C69.1825 166.326 68.8182 165.729 68.9603 165.134C69.1023 164.54 69.6972 164.174 70.2885 164.317C74.1462 165.248 76.3587 166.987 76.3587 169.088C76.3587 170.726 74.9862 172.175 72.4942 173.169C70.3242 174.034 67.4625 174.511 64.4364 174.511ZM81.2706 179.509C87.5538 181.518 88.8727 184.06 88.8727 185.84C88.8727 185.869 88.8723 185.898 88.8716 185.927C88.8481 192.181 86.3029 198.054 81.6973 202.473C77.0842 206.9 70.954 209.338 64.4364 209.338C57.9187 209.338 51.7887 206.9 47.1754 202.473C42.5698 198.054 40.0247 192.181 40.0011 185.927C40.0004 185.898 40 185.869 40 185.84C40 184.06 41.3189 181.518 47.6022 179.508C52.1147 178.066 58.0932 177.271 64.4365 177.271C68.6962 177.271 72.7907 177.63 76.3881 178.302L79.1298 174.117C79.4643 173.606 80.1473 173.465 80.6554 173.801C81.1635 174.137 81.3042 174.823 80.9697 175.334L78.7025 178.795C79.6013 179.011 80.46 179.249 81.2706 179.509ZM86.6699 185.84C86.6699 184.432 84.3451 182.815 80.6026 181.618C79.611 181.301 78.542 181.017 77.4105 180.767L72.8854 187.675C76.2688 188.088 79.3564 188.748 81.8815 189.615C84.8669 188.481 86.6699 187.079 86.6699 185.84ZM50.9362 190.792C54.8204 191.703 59.5043 192.195 64.4364 192.195C65.4103 192.195 66.3745 192.175 67.3248 192.137L69.0286 189.537C67.5298 189.439 65.992 189.388 64.436 189.388C59.5352 189.388 54.8119 189.888 50.9362 190.792ZM77.9366 190.792C75.9867 190.337 73.8219 189.985 71.5279 189.747L70.0693 191.974C72.9057 191.746 75.5696 191.347 77.9366 190.792ZM64.4363 179.485C58.3136 179.485 52.5723 180.242 48.27 181.618C44.5276 182.815 42.2028 184.432 42.2028 185.84C42.2028 187.079 44.006 188.481 46.9914 189.615C51.5133 188.062 57.8382 187.174 64.4359 187.174C66.4697 187.174 68.4769 187.259 70.4141 187.421L75.0694 180.315C71.8345 179.772 68.2081 179.485 64.4363 179.485ZM42.6044 189.873C44.5789 199.687 53.617 207.124 64.4364 207.124C75.2557 207.124 84.2938 199.687 86.2683 189.873C85.1247 190.668 83.5143 191.453 81.2706 192.171C76.7582 193.613 70.7796 194.408 64.4364 194.408C58.0931 194.408 52.1146 193.613 47.6021 192.171C45.3584 191.453 43.748 190.668 42.6044 189.873Z" fill="#FFB84D"/>
<path d="M42.68 383.32C42.68 390.68 47.72 394.28 53.84 394.28C59.96 394.28 65.24 390.68 65.24 383.32V366.08H59.6V383.36C59.6 387.2 57.52 389.2 53.92 389.2C50.36 389.2 48.28 387.2 48.28 383.36V366.08H42.68V383.32ZM101.651 394H107.251V381C107.251 374.88 103.491 371.52 98.1706 371.52C94.9306 371.52 92.0106 373.24 90.5706 375.76C89.0506 373 86.2106 371.52 82.7706 371.52C80.0106 371.52 77.6506 372.68 76.2506 374.52V371.84H70.6506V394H76.2506V381.76C76.2506 378.24 78.2106 376.4 81.2506 376.4C84.2106 376.4 86.1706 378.24 86.1706 381.76V394H91.7706V381.76C91.7706 378.24 93.7306 376.4 96.7306 376.4C99.6906 376.4 101.651 378.24 101.651 381.76V394ZM111.125 382.84C111.125 389.76 115.605 394.36 121.205 394.36C124.725 394.36 127.245 392.68 128.565 390.76V394H134.205V371.84H128.565V375C127.245 373.16 124.805 371.48 121.245 371.48C115.605 371.48 111.125 375.92 111.125 382.84ZM128.565 382.92C128.565 387.12 125.765 389.44 122.685 389.44C119.685 389.44 116.845 387.04 116.845 382.84C116.845 378.64 119.685 376.4 122.685 376.4C125.765 376.4 128.565 378.72 128.565 382.92ZM40.4 421.84L48.56 444H55.36L63.56 421.84H57.6L52 438.84L46.4 421.84H40.4ZM76.2253 426.08C79.1053 426.08 81.4253 427.92 81.5053 430.84H70.9853C71.4253 427.8 73.5453 426.08 76.2253 426.08ZM86.7453 437.04H80.7053C79.9853 438.52 78.6653 439.72 76.2653 439.72C73.4653 439.72 71.2253 437.88 70.9453 434.6H87.1453C87.2653 433.88 87.3053 433.16 87.3053 432.44C87.3053 425.84 82.7853 421.48 76.3853 421.48C69.8253 421.48 65.2653 425.92 65.2653 432.92C65.2653 439.88 69.9453 444.36 76.3853 444.36C81.8653 444.36 85.5453 441.12 86.7453 437.04ZM96.9928 432.96C96.9928 428.68 98.9928 427.4 102.313 427.4H103.793V421.52C100.713 421.52 98.3928 423 96.9928 425.28V421.84H91.3928V444H96.9928V432.96ZM106.125 432.84C106.125 439.76 110.605 444.36 116.245 444.36C119.725 444.36 122.205 442.76 123.525 440.72V444H129.205V414.4H123.525V424.92C122.005 422.84 119.205 421.48 116.285 421.48C110.605 421.48 106.125 425.92 106.125 432.84ZM123.565 432.92C123.565 437.12 120.765 439.44 117.685 439.44C114.685 439.44 111.845 437.04 111.845 432.84C111.845 428.64 114.685 426.4 117.685 426.4C120.765 426.4 123.565 428.72 123.565 432.92ZM133.234 432.84C133.234 439.76 137.714 444.36 143.314 444.36C146.834 444.36 149.354 442.68 150.674 440.76V444H156.314V421.84H150.674V425C149.354 423.16 146.914 421.48 143.354 421.48C137.714 421.48 133.234 425.92 133.234 432.84ZM150.674 432.92C150.674 437.12 147.874 439.44 144.794 439.44C141.794 439.44 138.954 437.04 138.954 432.84C138.954 428.64 141.794 426.4 144.794 426.4C147.874 426.4 150.674 428.72 150.674 432.92ZM160.343 432.84C160.343 439.76 164.823 444.36 170.463 444.36C173.943 444.36 176.423 442.76 177.743 440.72V444H183.423V414.4H177.743V424.92C176.223 422.84 173.423 421.48 170.503 421.48C164.823 421.48 160.343 425.92 160.343 432.84ZM177.783 432.92C177.783 437.12 174.983 439.44 171.903 439.44C168.903 439.44 166.063 437.04 166.063 432.84C166.063 428.64 168.903 426.4 171.903 426.4C174.983 426.4 177.783 428.72 177.783 432.92ZM198.413 426.08C201.293 426.08 203.613 427.92 203.693 430.84H193.173C193.613 427.8 195.733 426.08 198.413 426.08ZM208.933 437.04H202.893C202.173 438.52 200.853 439.72 198.453 439.72C195.653 439.72 193.413 437.88 193.133 434.6H209.333C209.453 433.88 209.493 433.16 209.493 432.44C209.493 425.84 204.973 421.48 198.573 421.48C192.013 421.48 187.453 425.92 187.453 432.92C187.453 439.88 192.133 444.36 198.573 444.36C204.053 444.36 207.733 441.12 208.933 437.04ZM213.58 444H219.18V421.84H213.58V444ZM216.42 419.2C218.38 419.2 219.86 417.76 219.86 415.92C219.86 414.08 218.38 412.64 216.42 412.64C214.42 412.64 212.98 414.08 212.98 415.92C212.98 417.76 214.42 419.2 216.42 419.2ZM230.313 432.96C230.313 428.68 232.313 427.4 235.633 427.4H237.113V421.52C234.033 421.52 231.713 423 230.313 425.28V421.84H224.713V444H230.313V432.96ZM239.445 432.84C239.445 439.76 243.925 444.36 249.525 444.36C253.045 444.36 255.565 442.68 256.885 440.76V444H262.525V421.84H256.885V425C255.565 423.16 253.125 421.48 249.565 421.48C243.925 421.48 239.445 425.92 239.445 432.84ZM256.885 432.92C256.885 437.12 254.085 439.44 251.005 439.44C248.005 439.44 245.165 437.04 245.165 432.84C245.165 428.64 248.005 426.4 251.005 426.4C254.085 426.4 256.885 428.72 256.885 432.92ZM52.28 476.08C55.16 476.08 57.48 477.92 57.56 480.84H47.04C47.48 477.8 49.6 476.08 52.28 476.08ZM62.8 487.04H56.76C56.04 488.52 54.72 489.72 52.32 489.72C49.52 489.72 47.28 487.88 47 484.6H63.2C63.32 483.88 63.36 483.16 63.36 482.44C63.36 475.84 58.84 471.48 52.44 471.48C45.88 471.48 41.32 475.92 41.32 482.92C41.32 489.88 46 494.36 52.44 494.36C57.92 494.36 61.6 491.12 62.8 487.04ZM79.6875 494H86.0075L78.6475 482.88L85.9275 471.84H79.9275L75.8475 478.68L71.3275 471.84H65.0075L72.3275 482.88L65.0875 494H71.0875L75.1275 487.12L79.6875 494ZM94.6491 475.04V471.84H89.0491V504.56H94.6491V490.84C96.0091 492.64 98.4891 494.36 101.969 494.36C107.649 494.36 112.089 489.76 112.089 482.84C112.089 475.92 107.649 471.48 101.969 471.48C98.5291 471.48 95.9691 473.16 94.6491 475.04ZM106.369 482.84C106.369 487.04 103.529 489.44 100.489 489.44C97.4891 489.44 94.6491 487.12 94.6491 482.92C94.6491 478.72 97.4891 476.4 100.489 476.4C103.529 476.4 106.369 478.64 106.369 482.84ZM125.678 476.08C128.558 476.08 130.878 477.92 130.958 480.84H120.438C120.878 477.8 122.998 476.08 125.678 476.08ZM136.198 487.04H130.158C129.438 488.52 128.118 489.72 125.718 489.72C122.918 489.72 120.678 487.88 120.398 484.6H136.598C136.718 483.88 136.758 483.16 136.758 482.44C136.758 475.84 132.238 471.48 125.838 471.48C119.278 471.48 114.718 475.92 114.718 482.92C114.718 489.88 119.398 494.36 125.838 494.36C131.318 494.36 134.998 491.12 136.198 487.04ZM146.446 482.96C146.446 478.68 148.446 477.4 151.766 477.4H153.246V471.52C150.166 471.52 147.846 473 146.446 475.28V471.84H140.846V494H146.446V482.96ZM157.018 494H162.618V471.84H157.018V494ZM159.858 469.2C161.818 469.2 163.298 467.76 163.298 465.92C163.298 464.08 161.818 462.64 159.858 462.64C157.858 462.64 156.418 464.08 156.418 465.92C156.418 467.76 157.858 469.2 159.858 469.2ZM177.671 476.08C180.551 476.08 182.871 477.92 182.951 480.84H172.431C172.871 477.8 174.991 476.08 177.671 476.08ZM188.191 487.04H182.151C181.431 488.52 180.111 489.72 177.711 489.72C174.911 489.72 172.671 487.88 172.391 484.6H188.591C188.711 483.88 188.751 483.16 188.751 482.44C188.751 475.84 184.231 471.48 177.831 471.48C171.271 471.48 166.711 475.92 166.711 482.92C166.711 489.88 171.391 494.36 177.831 494.36C183.311 494.36 186.991 491.12 188.191 487.04ZM183.671 466.12L177.751 462.88L171.791 466.12V470.2L177.751 466.84L183.671 470.2V466.12ZM208.358 494H213.958V481C213.958 474.88 210.278 471.52 205.118 471.52C202.278 471.52 199.878 472.72 198.438 474.6V471.84H192.838V494H198.438V481.76C198.438 478.2 200.398 476.28 203.438 476.28C206.398 476.28 208.358 478.2 208.358 481.76V494ZM217.843 482.92C217.843 489.88 222.403 494.36 228.803 494.36C234.323 494.36 238.043 491.24 239.243 486.52H233.203C232.523 488.52 231.083 489.56 228.763 489.56C225.643 489.56 223.563 487.24 223.563 482.92C223.563 478.6 225.643 476.24 228.763 476.24C231.083 476.24 232.563 477.44 233.203 479.32H239.243C238.043 474.36 234.323 471.48 228.803 471.48C222.403 471.48 217.843 475.96 217.843 482.92ZM243.346 494H248.946V471.84H243.346V494ZM246.186 469.2C248.146 469.2 249.626 467.76 249.626 465.92C249.626 464.08 248.146 462.64 246.186 462.64C244.186 462.64 242.746 464.08 242.746 465.92C242.746 467.76 244.186 469.2 246.186 469.2ZM253.039 482.84C253.039 489.76 257.519 494.36 263.119 494.36C266.639 494.36 269.159 492.68 270.479 490.76V494H276.119V471.84H270.479V475C269.159 473.16 266.719 471.48 263.159 471.48C257.519 471.48 253.039 475.92 253.039 482.84ZM270.479 482.92C270.479 487.12 267.679 489.44 264.599 489.44C261.599 489.44 258.759 487.04 258.759 482.84C258.759 478.64 261.599 476.4 264.599 476.4C267.679 476.4 270.479 478.72 270.479 482.92ZM42.76 544H48.36V516.08H42.76V544ZM54.7728 537.12C54.7728 542.2 57.6128 544 61.8528 544H65.3728V539.28H62.7728C61.0128 539.28 60.4128 538.64 60.4128 537.16V526.44H65.3728V521.84H60.4128V516.36H54.7728V521.84H52.1328V526.44H54.7728V537.12ZM67.9606 532.84C67.9606 539.76 72.4406 544.36 78.0406 544.36C81.5606 544.36 84.0806 542.68 85.4006 540.76V544H91.0406V521.84H85.4006V525C84.0806 523.16 81.6406 521.48 78.0806 521.48C72.4406 521.48 67.9606 525.92 67.9606 532.84ZM85.4006 532.92C85.4006 537.12 82.6006 539.44 79.5206 539.44C76.5206 539.44 73.6806 537.04 73.6806 532.84C73.6806 528.64 76.5206 526.4 79.5206 526.4C82.6006 526.4 85.4006 528.72 85.4006 532.92ZM96.51 544H102.11V514.4H96.51V544ZM107.643 544H113.243V521.84H107.643V544ZM110.483 519.2C112.443 519.2 113.923 517.76 113.923 515.92C113.923 514.08 112.443 512.64 110.483 512.64C108.483 512.64 107.043 514.08 107.043 515.92C107.043 517.76 108.483 519.2 110.483 519.2ZM117.336 532.84C117.336 539.76 121.816 544.36 127.416 544.36C130.936 544.36 133.456 542.68 134.776 540.76V544H140.416V521.84H134.776V525C133.456 523.16 131.016 521.48 127.456 521.48C121.816 521.48 117.336 525.92 117.336 532.84ZM134.776 532.92C134.776 537.12 131.976 539.44 128.896 539.44C125.896 539.44 123.056 537.04 123.056 532.84C123.056 528.64 125.896 526.4 128.896 526.4C131.976 526.4 134.776 528.72 134.776 532.92ZM161.405 544H167.005V531C167.005 524.88 163.325 521.52 158.165 521.52C155.325 521.52 152.925 522.72 151.485 524.6V521.84H145.885V544H151.485V531.76C151.485 528.2 153.445 526.28 156.485 526.28C159.445 526.28 161.405 528.2 161.405 531.76V544ZM170.89 532.84C170.89 539.76 175.37 544.36 180.97 544.36C184.49 544.36 187.01 542.68 188.33 540.76V544H193.97V521.84H188.33V525C187.01 523.16 184.57 521.48 181.01 521.48C175.37 521.48 170.89 525.92 170.89 532.84ZM188.33 532.92C188.33 537.12 185.53 539.44 182.45 539.44C179.45 539.44 176.61 537.04 176.61 532.84C176.61 528.64 179.45 526.4 182.45 526.4C185.53 526.4 188.33 528.72 188.33 532.92ZM205.32 541C205.32 539.16 203.88 537.72 201.92 537.72C199.88 537.72 198.44 539.16 198.44 541C198.44 542.84 199.88 544.28 201.92 544.28C203.88 544.28 205.32 542.84 205.32 541Z" fill="white"/>
<rect x="40" y="717" width="295" height="56" rx="8" fill="#FFB84D"/>
<path d="M279 717H327C331.418 717 335 720.582 335 725V765C335 769.418 331.418 773 327 773H279V717Z" fill="#FFC46B"/>
<path d="M90.11 739.515H84.035V750H90.11V748.29H86.135V745.515H89.66V743.85H86.135V741.225H90.11V739.515ZM97.8384 750H99.9384V745.125C99.9384 742.83 98.5584 741.57 96.6234 741.57C95.5584 741.57 94.6584 742.02 94.1184 742.725V741.69H92.0184V750H94.1184V745.41C94.1184 744.075 94.8534 743.355 95.9934 743.355C97.1034 743.355 97.8384 744.075 97.8384 745.41V750ZM102.265 747.42C102.265 749.325 103.33 750 104.92 750H106.24V748.23H105.265C104.605 748.23 104.38 747.99 104.38 747.435V743.415H106.24V741.69H104.38V739.635H102.265V741.69H101.275V743.415H102.265V747.42ZM109.851 745.86C109.851 744.255 110.601 743.775 111.846 743.775H112.401V741.57C111.246 741.57 110.376 742.125 109.851 742.98V741.69H107.751V750H109.851V745.86ZM113.275 745.815C113.275 748.41 114.955 750.135 117.055 750.135C118.375 750.135 119.32 749.505 119.815 748.785V750H121.93V741.69H119.815V742.875C119.32 742.185 118.405 741.555 117.07 741.555C114.955 741.555 113.275 743.22 113.275 745.815ZM119.815 745.845C119.815 747.42 118.765 748.29 117.61 748.29C116.485 748.29 115.42 747.39 115.42 745.815C115.42 744.24 116.485 743.4 117.61 743.4C118.765 743.4 119.815 744.27 119.815 745.845ZM126.081 745.86C126.081 744.255 126.831 743.775 128.076 743.775H128.631V741.57C127.476 741.57 126.606 742.125 126.081 742.98V741.69H123.981V750H126.081V745.86ZM139.44 750H141.54V745.125C141.54 742.83 140.16 741.57 138.225 741.57C137.16 741.57 136.26 742.02 135.72 742.725V741.69H133.62V750H135.72V745.41C135.72 744.075 136.455 743.355 137.595 743.355C138.705 743.355 139.44 744.075 139.44 745.41V750ZM151.562 745.845C151.562 743.22 149.687 741.555 147.287 741.555C144.887 741.555 143.012 743.22 143.012 745.845C143.012 748.455 144.827 750.135 147.227 750.135C149.642 750.135 151.562 748.455 151.562 745.845ZM145.142 745.845C145.142 744.18 146.147 743.385 147.257 743.385C148.367 743.385 149.402 744.18 149.402 745.845C149.402 747.495 148.337 748.305 147.227 748.305C146.102 748.305 145.142 747.495 145.142 745.845ZM162.227 742.785C162.227 743.73 161.702 744.345 160.532 744.345H158.777V741.27H160.532C161.702 741.27 162.227 741.855 162.227 742.785ZM156.677 739.53V750H158.777V745.92H159.767L162.077 750H164.507L162.002 745.755C163.682 745.305 164.387 744.015 164.387 742.74C164.387 740.985 163.127 739.53 160.607 739.53H156.677ZM169.856 743.28C170.936 743.28 171.806 743.97 171.836 745.065H167.891C168.056 743.925 168.851 743.28 169.856 743.28ZM173.801 747.39H171.536C171.266 747.945 170.771 748.395 169.871 748.395C168.821 748.395 167.981 747.705 167.876 746.475H173.951C173.996 746.205 174.011 745.935 174.011 745.665C174.011 743.19 172.316 741.555 169.916 741.555C167.456 741.555 165.746 743.22 165.746 745.845C165.746 748.455 167.501 750.135 169.916 750.135C171.971 750.135 173.351 748.92 173.801 747.39ZM181.994 747.63C181.934 744.585 177.329 745.53 177.329 744.015C177.329 743.535 177.734 743.22 178.514 743.22C179.339 743.22 179.849 743.655 179.909 744.3H181.919C181.799 742.65 180.584 741.555 178.574 741.555C176.519 741.555 175.289 742.665 175.289 744.045C175.289 747.09 179.984 746.145 179.984 747.63C179.984 748.11 179.534 748.485 178.709 748.485C177.869 748.485 177.284 748.005 177.209 747.375H175.094C175.184 748.92 176.639 750.135 178.724 750.135C180.749 750.135 181.994 749.055 181.994 747.63ZM184.048 747.42C184.048 749.325 185.113 750 186.703 750H188.023V748.23H187.048C186.388 748.23 186.163 747.99 186.163 747.435V743.415H188.023V741.69H186.163V739.635H184.048V741.69H183.058V743.415H184.048V747.42ZM188.993 745.815C188.993 748.41 190.673 750.135 192.773 750.135C194.093 750.135 195.038 749.505 195.533 748.785V750H197.648V741.69H195.533V742.875C195.038 742.185 194.123 741.555 192.788 741.555C190.673 741.555 188.993 743.22 188.993 745.815ZM195.533 745.845C195.533 747.42 194.483 748.29 193.328 748.29C192.203 748.29 191.138 747.39 191.138 745.815C191.138 744.24 192.203 743.4 193.328 743.4C194.483 743.4 195.533 744.27 195.533 745.845ZM207.544 741.69H205.429V746.265C205.429 747.6 204.709 748.32 203.569 748.32C202.459 748.32 201.724 747.6 201.724 746.265V741.69H199.624V746.565C199.624 748.845 201.019 750.105 202.954 750.105C203.989 750.105 204.904 749.655 205.429 748.95V750H207.544V741.69ZM211.716 745.86C211.716 744.255 212.466 743.775 213.711 743.775H214.266V741.57C213.111 741.57 212.241 742.125 211.716 742.98V741.69H209.616V750H211.716V745.86ZM215.141 745.815C215.141 748.41 216.821 750.135 218.921 750.135C220.241 750.135 221.186 749.505 221.681 748.785V750H223.796V741.69H221.681V742.875C221.186 742.185 220.271 741.555 218.936 741.555C216.821 741.555 215.141 743.22 215.141 745.815ZM221.681 745.845C221.681 747.42 220.631 748.29 219.476 748.29C218.351 748.29 217.286 747.39 217.286 745.815C217.286 744.24 218.351 743.4 219.476 743.4C220.631 743.4 221.681 744.27 221.681 745.845ZM231.667 750H233.767V745.125C233.767 742.83 232.387 741.57 230.452 741.57C229.387 741.57 228.487 742.02 227.947 742.725V741.69H225.847V750H227.947V745.41C227.947 744.075 228.682 743.355 229.822 743.355C230.932 743.355 231.667 744.075 231.667 745.41V750ZM236.094 747.42C236.094 749.325 237.159 750 238.749 750H240.069V748.23H239.094C238.434 748.23 238.209 747.99 238.209 747.435V743.415H240.069V741.69H238.209V739.635H236.094V741.69H235.104V743.415H236.094V747.42Z" fill="#7A1818"/>
<path d="M310 736H314C314.53 736 315.039 736.211 315.414 736.586C315.789 736.961 316 737.47 316 738V752C316 752.53 315.789 753.039 315.414 753.414C315.039 753.789 314.53 754 314 754H310" stroke="#7A1818" stroke-width="2" stroke-linecap="round" stroke-linejoin="round"/>
<path d="M305 750L310 745L305 740" stroke="#7A1818" stroke-width="2" stroke-linecap="round" stroke-linejoin="round"/>
<path d="M310 745H298" stroke="#7A1818" stroke-width="2" stroke-linecap="round" stroke-linejoin="round"/>
</g>
<defs>
<clipPath id="clip0">
<rect width="375" height="812" fill="white"/>
</clipPath>
</defs>
</svg>
