<svg width="308" height="62" viewBox="0 0 308 62" fill="none" xmlns="http://www.w3.org/2000/svg">
  <path d="M100.088 27.9323C106.887 27.9323 111.592 24.0733 111.592 15.4415H99.6758V19.2666H106.372C106.338 19.4697 106.304 19.6728 106.235 19.842C105.617 22.2793 103.179 23.7348 100.088 23.7348C95.967 23.7348 92.7733 20.1467 92.7733 15.9831C92.7733 11.8195 95.967 8.36671 100.088 8.36671C102.148 8.36671 104.037 9.24683 105.376 10.6685L108.845 7.72355C106.784 5.45557 103.659 4 100.088 4C93.2884 4 88 9.34838 88 15.9831C88 22.5839 93.2884 27.9323 100.088 27.9323Z" fill="white"/>
  <path d="M122.371 27.9323C126.938 27.9323 130.99 24.6827 130.99 19.7066C130.99 14.6968 126.938 11.4471 122.371 11.4471C117.804 11.4471 113.751 14.6968 113.751 19.7066C113.751 24.6827 117.804 27.9323 122.371 27.9323ZM122.371 23.8025C120.139 23.8025 118.319 22.1439 118.319 19.7066C118.319 17.2355 120.139 15.5769 122.371 15.5769C124.603 15.5769 126.423 17.2355 126.423 19.7066C126.423 22.1439 124.603 23.8025 122.371 23.8025Z" fill="white"/>
  <path d="M147.171 27.6276H152.768L146.621 19.0296C150.605 18.2172 152.356 15.2384 152.356 11.921C152.356 8.09591 150.021 4.30465 144.595 4.30465H135.151V27.6276H139.925V19.2666H141.539L147.171 27.6276ZM139.925 8.46826H144.114C146.346 8.46826 147.548 10.1608 147.548 12.0226C147.548 13.8843 146.415 15.4753 143.737 15.4753H139.925V8.46826Z" fill="white"/>
  <path d="M171.426 19.4697C171.426 14.6291 167.682 11.4471 163.115 11.4471C158.513 11.4471 154.599 14.6291 154.599 19.7405C154.599 24.615 158.204 27.9323 163.115 27.9323C165.931 27.9323 168.747 26.8491 170.258 24.8519L167.614 22.2454C166.652 23.3625 165.038 24.0056 163.424 24.0056C161.261 24.0056 159.75 22.9901 159.269 21.1622H171.357C171.391 20.4513 171.426 19.9097 171.426 19.4697ZM159.269 18.2849C159.75 16.1523 161.364 15.3061 163.184 15.3061C165.21 15.3061 166.79 16.4231 166.927 18.2849H159.269Z" fill="white"/>
  <path d="M180.576 27.9323C183.873 27.9323 187.307 26.3075 187.307 22.9901C187.307 21.7038 186.826 19.3343 182.98 18.3188L180.336 17.6417C179.443 17.4048 178.756 17.0324 178.756 16.2877C178.756 15.4753 179.581 14.9676 180.611 14.9676C181.675 14.9676 182.568 15.543 182.568 16.5924H186.861C186.895 12.8688 183.461 11.4471 180.542 11.4471C176.833 11.4471 174.258 13.7151 174.258 16.1523C174.258 17.811 174.807 20.079 178.928 21.1622L181.057 21.67C182.259 21.9746 182.809 22.3131 182.809 22.9901C182.809 23.9041 181.813 24.4457 180.508 24.4457C178.928 24.4457 178.138 23.464 178.138 22.5501H173.914C173.949 26.0367 177.211 27.9323 180.576 27.9323Z" fill="white"/>
  <path d="M200.216 11.8533H196.817V6.06488H192.318V11.8533H189.399V15.2722H192.318V27.6276H196.817V15.2722H200.216V11.8533Z" fill="white"/>
  <path d="M214.899 11.8533V13.7489C213.766 12.158 211.602 11.481 209.748 11.481C205.627 11.481 201.884 14.6291 201.884 19.7066C201.884 24.7842 205.627 27.9323 209.748 27.9323C211.534 27.9323 213.766 27.2214 214.899 25.6643V27.6276H219.398V11.8533H214.899ZM210.606 23.8025C208.34 23.8025 206.451 22.0085 206.451 19.7066C206.451 17.3709 208.34 15.6446 210.606 15.6446C212.701 15.6446 214.762 17.2694 214.762 19.7066C214.762 22.11 212.804 23.8025 210.606 23.8025Z" fill="white"/>
  <path d="M234.894 11.8533V19.9436C234.894 22.787 232.902 23.6333 231.288 23.6333C229.743 23.6333 228.232 22.5162 228.232 20.0451V11.8533H223.733V20.519C223.699 25.2581 225.897 28 230.086 28C231.666 28 234.207 27.1199 234.894 25.055V27.6276H239.393V11.8533H234.894Z" fill="white"/>
  <path d="M253.096 11.4471C251.104 11.4471 249.284 12.5642 248.391 15.2045V11.8533H243.927V27.6276H248.425V22.2116C248.425 17.7094 250.005 15.6107 252.306 15.6107C252.855 15.6107 253.645 15.6784 254.607 16.1862L255.637 11.9549C254.916 11.5825 253.954 11.4471 253.096 11.4471Z" fill="white"/>
  <path d="M269.73 11.8533V13.7489C268.597 12.158 266.433 11.481 264.579 11.481C260.458 11.481 256.715 14.6291 256.715 19.7066C256.715 24.7842 260.458 27.9323 264.579 27.9323C266.365 27.9323 268.597 27.2214 269.73 25.6643V27.6276H274.228V11.8533H269.73ZM265.437 23.8025C263.171 23.8025 261.282 22.0085 261.282 19.7066C261.282 17.3709 263.171 15.6446 265.437 15.6446C267.532 15.6446 269.593 17.2694 269.593 19.7066C269.593 22.11 267.635 23.8025 265.437 23.8025Z" fill="white"/>
  <path d="M288.077 11.4471C286.497 11.4471 283.956 12.3611 283.269 14.4937V11.8533H278.77V27.6276H283.269V19.5374C283.269 16.6601 285.261 15.8138 286.875 15.8138C288.42 15.8138 289.931 16.9309 289.931 19.4358V27.6276H294.43V18.9619C294.464 14.2228 292.266 11.4471 288.077 11.4471Z" fill="white"/>
  <path d="M308 11.8533H304.6V6.06488H300.102V11.8533H297.183V15.2722H300.102V27.6276H304.6V15.2722H308V11.8533Z" fill="white"/>
  <path d="M96.6529 52.2344C96.514 53.4151 96.074 54.3275 95.333 54.9715C94.5971 55.6104 93.6168 55.9299 92.3921 55.9299C91.0644 55.9299 89.9992 55.4571 89.1964 54.5115C88.3988 53.5659 88 52.3008 88 50.7163V49.6429C88 48.6053 88.1853 47.693 88.5558 46.9058C88.9314 46.1187 89.4614 45.5155 90.1459 45.0964C90.8303 44.6721 91.6227 44.46 92.5233 44.46C93.7172 44.46 94.6743 44.7923 95.3947 45.4567C96.1152 46.1161 96.5346 47.031 96.6529 48.2015H95.1632C95.0345 47.3122 94.7541 46.6681 94.3218 46.2694C93.8947 45.8708 93.2952 45.6714 92.5233 45.6714C91.5764 45.6714 90.8328 46.019 90.2925 46.7141C89.7573 47.4093 89.4898 48.3983 89.4898 49.6813V50.7623C89.4898 51.9737 89.7445 52.9372 90.2539 53.6528C90.7634 54.3684 91.4761 54.7262 92.3921 54.7262C93.2154 54.7262 93.8458 54.5422 94.2832 54.1742C94.7258 53.801 95.0191 53.1544 95.1632 52.2344H96.6529Z" fill="#FFB1B1"/>
  <path d="M98.0809 51.552C98.0809 50.7393 98.2404 50.0084 98.5595 49.3593C98.8837 48.7101 99.3314 48.2092 99.9026 47.8565C100.479 47.5038 101.135 47.3275 101.871 47.3275C103.008 47.3275 103.927 47.7185 104.627 48.5005C105.332 49.2826 105.684 50.3227 105.684 51.621V51.7207C105.684 52.5283 105.527 53.2541 105.213 53.8981C104.904 54.5371 104.459 55.0354 103.878 55.3932C103.301 55.751 102.638 55.9299 101.886 55.9299C100.754 55.9299 99.8357 55.5389 99.1307 54.7568C98.4308 53.9748 98.0809 52.9398 98.0809 51.6517V51.552ZM99.5166 51.7207C99.5166 52.6407 99.7302 53.3793 100.157 53.9365C100.59 54.4936 101.166 54.7722 101.886 54.7722C102.612 54.7722 103.188 54.4911 103.615 53.9288C104.042 53.3614 104.256 52.5692 104.256 51.552C104.256 50.6422 104.037 49.9062 103.6 49.3439C103.168 48.7766 102.591 48.4929 101.871 48.4929C101.166 48.4929 100.597 48.7714 100.165 49.3286C99.7328 49.8857 99.5166 50.6831 99.5166 51.7207Z" fill="#FFB1B1"/>
  <path d="M108.818 47.4808L108.857 48.4009C109.469 47.6853 110.295 47.3275 111.334 47.3275C112.502 47.3275 113.297 47.7722 113.719 48.6616C113.997 48.2629 114.358 47.9409 114.8 47.6955C115.248 47.4502 115.775 47.3275 116.382 47.3275C118.214 47.3275 119.146 48.291 119.177 50.218V55.7766H117.749V50.3023C117.749 49.7094 117.612 49.2673 117.34 48.9759C117.067 48.6794 116.609 48.5312 115.966 48.5312C115.436 48.5312 114.996 48.6897 114.646 49.0066C114.296 49.3184 114.093 49.7401 114.036 50.2716V55.7766H112.6V50.3406C112.6 49.1344 112.006 48.5312 110.817 48.5312C109.881 48.5312 109.24 48.9273 108.895 49.7196V55.7766H107.467V47.4808H108.818Z" fill="#FFB1B1"/>
  <path d="M122.89 55.7766H121.462V47.4808H122.89V55.7766ZM121.346 45.2804C121.346 45.0504 121.415 44.8562 121.554 44.6977C121.698 44.5392 121.909 44.46 122.187 44.46C122.465 44.46 122.676 44.5392 122.82 44.6977C122.964 44.8562 123.036 45.0504 123.036 45.2804C123.036 45.5104 122.964 45.7021 122.82 45.8554C122.676 46.0088 122.465 46.0854 122.187 46.0854C121.909 46.0854 121.698 46.0088 121.554 45.8554C121.415 45.7021 121.346 45.5104 121.346 45.2804Z" fill="#FFB1B1"/>
  <path d="M124.835 51.5597C124.835 50.287 125.138 49.2647 125.746 48.4929C126.353 47.716 127.148 47.3275 128.131 47.3275C129.108 47.3275 129.883 47.6597 130.454 48.3242V44H131.882V55.7766H130.57L130.5 54.8872C129.929 55.5823 129.134 55.9299 128.115 55.9299C127.148 55.9299 126.358 55.5363 125.746 54.7492C125.138 53.962 124.835 52.9346 124.835 51.667V51.5597ZM126.263 51.7207C126.263 52.6612 126.458 53.3972 126.849 53.9288C127.24 54.4604 127.781 54.7262 128.47 54.7262C129.376 54.7262 130.037 54.3224 130.454 53.5148V49.7043C130.027 48.9222 129.371 48.5312 128.486 48.5312C127.786 48.5312 127.24 48.7996 126.849 49.3363C126.458 49.8729 126.263 50.6678 126.263 51.7207Z" fill="#FFB1B1"/>
  <path d="M139.261 55.7766C139.179 55.613 139.112 55.3216 139.061 54.9025C138.397 55.5874 137.604 55.9299 136.683 55.9299C135.86 55.9299 135.183 55.6999 134.653 55.2399C134.128 54.7747 133.866 54.1869 133.866 53.4765C133.866 52.6126 134.195 51.943 134.854 51.4677C135.518 50.9872 136.449 50.747 137.648 50.747H139.038V50.0953C139.038 49.5995 138.888 49.2059 138.59 48.9146C138.291 48.6181 137.851 48.4699 137.27 48.4699C136.76 48.4699 136.333 48.5977 135.989 48.8532C135.644 49.1088 135.471 49.418 135.471 49.7809H134.036C134.036 49.3669 134.182 48.9682 134.476 48.5849C134.774 48.1964 135.175 47.8897 135.68 47.6648C136.189 47.4399 136.748 47.3275 137.355 47.3275C138.317 47.3275 139.071 47.5677 139.616 48.0482C140.162 48.5235 140.445 49.1804 140.466 50.0186V53.8368C140.466 54.5984 140.563 55.2041 140.759 55.6539V55.7766H139.261ZM136.892 54.6955C137.339 54.6955 137.764 54.5805 138.165 54.3505C138.567 54.1205 138.857 53.8215 139.038 53.4535V51.7514H137.918C136.169 51.7514 135.294 52.2599 135.294 53.2771C135.294 53.7218 135.443 54.0694 135.742 54.3198C136.04 54.5703 136.423 54.6955 136.892 54.6955Z" fill="#FFB1B1"/>
  <path d="M148.439 55.7766H146.957V44.6134H148.439V55.7766Z" fill="#FFB1B1"/>
  <path d="M152.87 45.4721V47.4808H154.429V48.5772H152.87V53.7218C152.87 54.054 152.939 54.3045 153.078 54.4732C153.217 54.6367 153.454 54.7185 153.788 54.7185C153.953 54.7185 154.179 54.6878 154.468 54.6265V55.7766C154.092 55.8788 153.727 55.9299 153.372 55.9299C152.733 55.9299 152.252 55.7382 151.928 55.3549C151.604 54.9715 151.442 54.4272 151.442 53.7218V48.5772H149.921V47.4808H151.442V45.4721H152.87Z" fill="#FFB1B1"/>
  <path d="M161.26 55.7766C161.178 55.613 161.111 55.3216 161.06 54.9025C160.396 55.5874 159.603 55.9299 158.682 55.9299C157.859 55.9299 157.182 55.6999 156.652 55.2399C156.127 54.7747 155.865 54.1869 155.865 53.4765C155.865 52.6126 156.194 51.943 156.853 51.4677C157.517 50.9872 158.448 50.747 159.647 50.747H161.036V50.0953C161.036 49.5995 160.887 49.2059 160.589 48.9146C160.29 48.6181 159.85 48.4699 159.269 48.4699C158.759 48.4699 158.332 48.5977 157.987 48.8532C157.643 49.1088 157.47 49.418 157.47 49.7809H156.035C156.035 49.3669 156.181 48.9682 156.475 48.5849C156.773 48.1964 157.174 47.8897 157.679 47.6648C158.188 47.4399 158.747 47.3275 159.354 47.3275C160.316 47.3275 161.07 47.5677 161.615 48.0482C162.161 48.5235 162.444 49.1804 162.464 50.0186V53.8368C162.464 54.5984 162.562 55.2041 162.758 55.6539V55.7766H161.26ZM158.891 54.6955C159.338 54.6955 159.763 54.5805 160.164 54.3505C160.566 54.1205 160.856 53.8215 161.036 53.4535V51.7514H159.917C158.168 51.7514 157.293 52.2599 157.293 53.2771C157.293 53.7218 157.442 54.0694 157.74 54.3198C158.039 54.5703 158.422 54.6955 158.891 54.6955Z" fill="#FFB1B1"/>
  <path d="M166.254 55.7766H164.826V44H166.254V55.7766Z" fill="#FFB1B1"/>
  <path d="M170.098 55.7766H168.67V47.4808H170.098V55.7766ZM168.555 45.2804C168.555 45.0504 168.624 44.8562 168.763 44.6977C168.907 44.5392 169.118 44.46 169.396 44.46C169.674 44.46 169.885 44.5392 170.029 44.6977C170.173 44.8562 170.245 45.0504 170.245 45.2804C170.245 45.5104 170.173 45.7021 170.029 45.8554C169.885 46.0088 169.674 46.0854 169.396 46.0854C169.118 46.0854 168.907 46.0088 168.763 45.8554C168.624 45.7021 168.555 45.5104 168.555 45.2804Z" fill="#FFB1B1"/>
  <path d="M177.547 55.7766C177.465 55.613 177.398 55.3216 177.347 54.9025C176.683 55.5874 175.89 55.9299 174.969 55.9299C174.146 55.9299 173.469 55.6999 172.939 55.2399C172.414 54.7747 172.152 54.1869 172.152 53.4765C172.152 52.6126 172.481 51.943 173.14 51.4677C173.804 50.9872 174.735 50.747 175.934 50.747H177.323V50.0953C177.323 49.5995 177.174 49.2059 176.876 48.9146C176.577 48.6181 176.137 48.4699 175.556 48.4699C175.046 48.4699 174.619 48.5977 174.274 48.8532C173.93 49.1088 173.757 49.418 173.757 49.7809H172.322C172.322 49.3669 172.468 48.9682 172.762 48.5849C173.06 48.1964 173.461 47.8897 173.966 47.6648C174.475 47.4399 175.033 47.3275 175.641 47.3275C176.603 47.3275 177.357 47.5677 177.902 48.0482C178.448 48.5235 178.731 49.1804 178.751 50.0186V53.8368C178.751 54.5984 178.849 55.2041 179.045 55.6539V55.7766H177.547ZM175.178 54.6955C175.625 54.6955 176.05 54.5805 176.451 54.3505C176.853 54.1205 177.143 53.8215 177.323 53.4535V51.7514H176.204C174.455 51.7514 173.58 52.2599 173.58 53.2771C173.58 53.7218 173.729 54.0694 174.027 54.3198C174.326 54.5703 174.709 54.6955 175.178 54.6955Z" fill="#FFB1B1"/>
  <path d="M182.341 47.4808L182.387 48.5235C183.025 47.7262 183.859 47.3275 184.888 47.3275C186.653 47.3275 187.543 48.3165 187.559 50.2946V55.7766H186.131V50.287C186.126 49.6889 185.987 49.2468 185.714 48.9606C185.446 48.6743 185.027 48.5312 184.456 48.5312C183.993 48.5312 183.586 48.6539 183.236 48.8992C182.886 49.1446 182.613 49.4666 182.418 49.8653V55.7766H180.99V47.4808H182.341Z" fill="#FFB1B1"/>
  <path d="M194.869 55.7766C194.786 55.613 194.719 55.3216 194.668 54.9025C194.004 55.5874 193.212 55.9299 192.29 55.9299C191.467 55.9299 190.79 55.6999 190.26 55.2399C189.735 54.7747 189.473 54.1869 189.473 53.4765C189.473 52.6126 189.802 51.943 190.461 51.4677C191.125 50.9872 192.056 50.747 193.255 50.747H194.645V50.0953C194.645 49.5995 194.495 49.2059 194.197 48.9146C193.899 48.6181 193.459 48.4699 192.877 48.4699C192.368 48.4699 191.94 48.5977 191.596 48.8532C191.251 49.1088 191.079 49.418 191.079 49.7809H189.643C189.643 49.3669 189.789 48.9682 190.083 48.5849C190.381 48.1964 190.783 47.8897 191.287 47.6648C191.796 47.4399 192.355 47.3275 192.962 47.3275C193.924 47.3275 194.678 47.5677 195.224 48.0482C195.769 48.5235 196.052 49.1804 196.073 50.0186V53.8368C196.073 54.5984 196.17 55.2041 196.366 55.6539V55.7766H194.869ZM192.499 54.6955C192.947 54.6955 193.371 54.5805 193.772 54.3505C194.174 54.1205 194.465 53.8215 194.645 53.4535V51.7514H193.525C191.776 51.7514 190.901 52.2599 190.901 53.2771C190.901 53.7218 191.05 54.0694 191.349 54.3198C191.647 54.5703 192.031 54.6955 192.499 54.6955Z" fill="#FFB1B1"/>
  <path d="M198.265 58L197.454 57.448C197.938 56.7784 198.19 56.0884 198.211 55.3779V54.0975H199.608V55.2092C199.608 55.7254 199.479 56.2417 199.222 56.7579C198.97 57.2742 198.651 57.6882 198.265 58Z" fill="#FFB1B1"/>
  <path d="M210.198 53.5761C210.198 53.1928 210.052 52.8963 209.758 52.6867C209.47 52.4721 208.963 52.2881 208.238 52.1347C207.517 51.9814 206.943 51.7974 206.516 51.5827C206.094 51.368 205.781 51.1124 205.575 50.816C205.374 50.5195 205.274 50.1668 205.274 49.7579C205.274 49.0781 205.562 48.5031 206.138 48.0329C206.72 47.5626 207.461 47.3275 208.361 47.3275C209.308 47.3275 210.075 47.5703 210.661 48.0559C211.253 48.5414 211.549 49.1625 211.549 49.9189H210.113C210.113 49.5305 209.946 49.1957 209.612 48.9146C209.282 48.6334 208.866 48.4929 208.361 48.4929C207.841 48.4929 207.435 48.6053 207.142 48.8302C206.848 49.0551 206.702 49.349 206.702 49.7119C206.702 50.0544 206.838 50.3125 207.111 50.4863C207.383 50.6601 207.875 50.8262 208.585 50.9847C209.3 51.1431 209.879 51.3322 210.322 51.552C210.764 51.7718 211.091 52.0376 211.302 52.3494C211.518 52.6561 211.626 53.0318 211.626 53.4765C211.626 54.2176 211.328 54.8131 210.731 55.2629C210.134 55.7076 209.36 55.9299 208.408 55.9299C207.739 55.9299 207.147 55.8123 206.632 55.5772C206.118 55.3421 205.714 55.015 205.42 54.5958C205.132 54.1716 204.988 53.7141 204.988 53.2234H206.416C206.442 53.6988 206.632 54.077 206.987 54.3582C207.347 54.6342 207.821 54.7722 208.408 54.7722C208.948 54.7722 209.38 54.6648 209.704 54.4502C210.034 54.2304 210.198 53.939 210.198 53.5761Z" fill="#FFB1B1"/>
  <path d="M215.038 55.7766H213.61V47.4808H215.038V55.7766ZM213.494 45.2804C213.494 45.0504 213.564 44.8562 213.703 44.6977C213.847 44.5392 214.058 44.46 214.336 44.46C214.614 44.46 214.825 44.5392 214.969 44.6977C215.113 44.8562 215.185 45.0504 215.185 45.2804C215.185 45.5104 215.113 45.7021 214.969 45.8554C214.825 46.0088 214.614 46.0854 214.336 46.0854C214.058 46.0854 213.847 46.0088 213.703 45.8554C213.564 45.7021 213.494 45.5104 213.494 45.2804Z" fill="#FFB1B1"/>
  <path d="M218.674 47.4808L218.712 48.4009C219.325 47.6853 220.151 47.3275 221.19 47.3275C222.358 47.3275 223.153 47.7722 223.575 48.6616C223.853 48.2629 224.213 47.9409 224.656 47.6955C225.104 47.4502 225.631 47.3275 226.238 47.3275C228.07 47.3275 229.002 48.291 229.032 50.218V55.7766H227.604V50.3023C227.604 49.7094 227.468 49.2673 227.195 48.9759C226.923 48.6794 226.465 48.5312 225.821 48.5312C225.291 48.5312 224.851 48.6897 224.501 49.0066C224.152 49.3184 223.948 49.7401 223.892 50.2716V55.7766H222.456V50.3406C222.456 49.1344 221.862 48.5312 220.673 48.5312C219.736 48.5312 219.096 48.9273 218.751 49.7196V55.7766H217.323V47.4808H218.674Z" fill="#FFB1B1"/>
  <path d="M231.225 55.0329C231.225 54.7875 231.297 54.5831 231.441 54.4195C231.59 54.2559 231.811 54.1742 232.105 54.1742C232.398 54.1742 232.619 54.2559 232.768 54.4195C232.923 54.5831 233 54.7875 233 55.0329C233 55.268 232.923 55.4648 232.768 55.6232C232.619 55.7817 232.398 55.8609 232.105 55.8609C231.811 55.8609 231.59 55.7817 231.441 55.6232C231.297 55.4648 231.225 55.268 231.225 55.0329Z" fill="#FFB1B1"/>
  <path fill-rule="evenodd" clip-rule="evenodd" d="M32 16.3863C28.0372 16.3863 24.2897 15.7619 21.4481 14.6282C18.1848 13.3263 16.3875 11.4282 16.3876 9.28342C16.3876 7.13875 18.1849 5.24066 21.4482 3.93878C23.4813 3.12774 25.9794 2.57907 28.6871 2.33148C28.252 1.7631 28.2921 0.94524 28.8103 0.424548C29.3735 -0.141516 30.2867 -0.141516 30.85 0.424548L33.0197 2.60545C33.583 3.17152 33.583 4.0894 33.0197 4.65546L30.8499 6.83622C30.5683 7.11932 30.1991 7.2608 29.83 7.2608C29.4609 7.2608 29.0918 7.11932 28.8101 6.83622C28.3867 6.41048 28.2818 5.78585 28.4953 5.26153C26.2425 5.49927 24.1862 5.9656 22.5124 6.63342C20.1207 7.58754 19.2722 8.65734 19.2722 9.28342C19.2722 9.90949 20.1207 10.9793 22.5124 11.9334C25.0234 12.9352 28.3929 13.4869 32 13.4869C35.6071 13.4869 38.9766 12.9352 41.4877 11.9334C43.8793 10.9793 44.7279 9.90964 44.7279 9.28342C44.7279 8.26725 42.7568 6.76273 38.9897 5.85311C38.2152 5.66611 37.7382 4.88348 37.9242 4.10505C38.1102 3.32662 38.8892 2.8471 39.6635 3.03424C44.7153 4.25392 47.6125 6.53181 47.6125 9.28356C47.6125 11.4282 45.8152 13.3263 42.552 14.6282C39.7103 15.7619 35.9628 16.3863 32 16.3863ZM54.0449 22.9316C62.2728 25.5632 64 28.8933 64 31.2235C64 31.2615 63.9994 31.2998 63.9986 31.3382C63.9677 39.5286 60.6348 47.2209 54.6036 53.0091C48.5626 58.807 40.535 62 32 62C23.465 62 15.4376 58.807 9.39636 53.0091C3.36525 47.2209 0.0323082 39.5286 0.00144233 31.3382C0.000576933 31.2998 0 31.2615 0 31.2235C0 28.8933 1.72719 25.5632 9.95526 22.9314C15.8645 21.0416 23.6935 20.0008 32.0001 20.0008C37.5784 20.0008 42.9402 20.4709 47.651 21.3515L51.2414 15.8698C51.6795 15.2011 52.5738 15.0158 53.2392 15.456C53.9045 15.8963 54.0889 16.7952 53.6508 17.4639L50.6818 21.9969C51.8589 22.2804 52.9833 22.5921 54.0449 22.9316ZM61.1153 31.2235C61.1153 29.3804 58.071 27.2618 53.1701 25.6943C51.8716 25.279 50.4716 24.9072 48.9899 24.5802L43.0643 33.6274C47.4948 34.1688 51.5381 35.0324 54.8448 36.1683C58.7542 34.6827 61.1153 32.8463 61.1153 31.2235ZM14.3212 37.7103C19.4077 38.9025 25.5414 39.5469 32 39.5469C33.2755 39.5469 34.5381 39.5215 35.7825 39.472L38.0137 36.0656C36.0509 35.9376 34.0371 35.871 31.9996 35.871C25.5818 35.871 19.3965 36.5261 14.3212 37.7103ZM49.6789 37.7103C47.1254 37.1145 44.2905 36.6531 41.2866 36.3413L39.3765 39.2577C43.0908 38.96 46.5792 38.4368 49.6789 37.7103ZM31.9999 22.9001C23.9821 22.9001 16.4638 23.8925 10.8297 25.6943C5.92899 27.2616 2.88466 29.3804 2.88466 31.2235C2.88466 32.8465 5.2459 34.6828 9.15534 36.1683C15.077 34.134 23.3596 32.9717 31.9994 32.9717C34.6627 32.9717 37.2912 33.083 39.828 33.2953L45.9243 23.9876C41.688 23.2772 36.9391 22.9001 31.9999 22.9001ZM3.41054 36.5064C5.9962 49.3603 17.8318 59.1008 32 59.1008C46.1682 59.1008 58.0038 49.3605 60.5895 36.5064C59.0919 37.547 56.9831 38.5758 54.0449 39.5154C48.1358 41.4053 40.3067 42.4461 32 42.4461C23.6933 42.4461 15.8643 41.4053 9.95512 39.5154C7.01694 38.5757 4.90811 37.5469 3.41054 36.5064Z" fill="#FFB84D"/>
</svg>
